# xmcd
#
# Track frame offsets: 
#        150
#        21031
#        39600
#        59987
#        77810
#        96588
#        114258
#        133419
#        148797
#        168599
#
# Disc length: 2480 seconds
#
# Revision: 0
# Processed by: cddbd v1.5.2PL0 Copyright (c) Steve Scherf et al.
# Submitted via: ExactAudioCopy v1.3
#
DISCID=9709ae0a
DTITLE=Altered Five - Gotta Earn It
DYEAR=2012
DGENRE=Chicago Blues, Modern Electric Blues
TTITLE0=Ain't That Peculiar
TTITLE1=Three Wishes
TTITLE2=You've Got To Earn It
TTITLE3=Keep The Best
TTITLE4=Older, Wiser, Richer
TTITLE5=Mona Lisa
TTITLE6=Tight Spot
TTITLE7=Dynamite
TTITLE8=Watch Yourself
TTITLE9=Bounce Back
EXTD=
EXTT0=
EXTT1=
EXTT2=
EXTT3=
EXTT4=
EXTT5=
EXTT6=
EXTT7=
EXTT8=
EXTT9=
PLAYORDER=
